<?xml version="1.0" encoding="UTF-8"?>
<svg version="1.1" viewBox="0 0 640 640" xml:space="preserve" xmlns="http://www.w3.org/2000/svg"><g fill="#fff">
<path d="m275.03 320.02a7.5688 7.5688 0 0 0-5.7033 2.5927l-28.516 34.565a6.4638 6.4638 0 0 0 5.7031 10.373l57.033 1e-3a6.4638 6.4638 0 0 0 5.7034-10.373l-28.516-34.564a7.5688 7.5688 0 0 0-5.7046-2.5941z"/><path d="m370.09 320.02a7.5688 7.5688 0 0 0-5.7033 2.5927l-28.518 34.565a6.4638 6.4638 0 0 0 5.7031 10.373l57.034-6.6e-4a6.4638 6.4638 0 0 0 5.7034-10.373l-28.516-34.564a7.5688 7.5688 0 0 0-5.7032-2.5917z"/><path d="m563.02 130.88c-6.009-1.8723-12.397-2.8811-19.015-2.881l-448 3.3e-4c-35.3 4e-5 -64.001 28.701-64.001 64.001l-8e-5 63.999c-2.1e-5 8.8 7.4018 15.7 15.701 18.6 18.8 6.5 32.299 24.401 32.299 45.401-7.8e-5 21-13.5 38.9-32.3 45.4-8.3 2.9-15.7 9.7994-15.701 18.599l-8e-5 63.999c3.5e-5 35.3 28.701 64.001 64.001 64.001l448-3.3e-4c35.3-4e-5 64.001-28.701 64.001-64.001l8e-5 -63.999c2e-5 -8.8-7.4018-15.7-15.701-18.6-18.8-6.5-32.299-24.401-32.299-45.401 8e-5 -21 13.5-38.9 32.3-45.4 8.3-2.9 15.7-9.7994 15.701-18.599l8e-5 -63.999c7e-5 -28.681-18.946-53.007-44.985-61.121zm-192.92 58.45a11.882 11.882 0 0 1 1.6e-4 23.763 32.295 32.295 0 0 0-34.742 27.52 178.86 178.86 0 0 1 34.742 31.891c11.038-11.3 25.155-19.963 35.647-14.711 17.407 8.6976 35.644 103.04 35.645 109.77 3.6e-4 52.495-53.195 59.41-118.82 59.41-65.624 2.3e-4 -118.82-6.9152-118.82-59.411 0-6.7252 18.24-101.07 35.645-109.76 10.492-5.2519 24.609 3.4101 35.647 14.71a163.39 163.39 0 0 1 36.335-32.581 56.119 56.119 0 0 1 58.72-50.592z"/></g></svg>
